<svg xmlns="http://www.w3.org/2000/svg" version="1.1" viewBox="-5.0 -10.0 110.0 135.0">
 <path d="m89.551 27.602c-2.3984-2.7695-6-4-10.852-3.7188v-0.003906c-1.5938 0.125-3.1484 0.53516-4.5977 1.2109l-46.652 20.91c-2.2109 1.0039-4.7852 0.76562-6.7773-0.62109l-7.6719-5.2695c-0.69141-0.47656-1.6133-0.44922-2.2695 0.070313-0.66016 0.51953-0.90625 1.4062-0.60156 2.1914l4.4414 11.52c1.8438 4.7031 7.0938 7.0859 11.852 5.3789l19-6.9414c0.33984-0.12109 0.69531-0.18359 1.0586-0.1875 0.89453 0.003906 1.7422 0.40234 2.3203 1.0859 0.57812 0.6875 0.82422 1.5898 0.67969 2.4727l-3.3516 20.461c3.2188-0.19141 5.6406-1.8711 7.5781-5.2188l12.293-26.422c0.64062-1.3594 1.7383-2.4531 3.1016-3.0898 10.691-5 17.328-8.6914 20.289-11.309 0.71484-0.67188 0.76953-1.7852 0.12109-2.5195z"/>
 <path d="m24.879 29.488 13.301 8.5117 12.301-5.5195-15.801-4.4805c-3.3281-0.96875-6.9102-0.42578-9.8008 1.4883z"/>
<text x="0.0" y="117.5" font-size="5.0" font-weight="bold" font-family="Arbeit Regular, Helvetica, Arial-Unicode, Arial, Sans-serif" fill="#000000">Created by Annisa</text><text x="0.0" y="122.5" font-size="5.0" font-weight="bold" font-family="Arbeit Regular, Helvetica, Arial-Unicode, Arial, Sans-serif" fill="#000000">from Noun Project</text></svg>